# xmcd CD database file
#
# Track frame offsets:
#	150
#	15078
#	38348
#	52331
#	75887
#	89757
#	116645
#	129835
#	145468
#	161023
#	174405
#	200408
#	224528
#
# Disc length: 3175 seconds
#
# Revision: 0
# Processed by: cddbd v1.5.1PL2 Copyright (c) Steve Scherf et al.
# Submitted via: CDex 1.51
#
DISCID=a90c650d
DTITLE=Rebop - The Savoy Originals
DYEAR=2006
DGENRE=Jazz
TTITLE0=Modern Jazz Quartet - Movin Nicely
TTITLE1=Duke Jordan - Night in Tunisia
TTITLE2=Miles Davis - Moose the Mooche
TTITLE3=Curtis Fuller - Minor Vamp
TTITLE4=Cal Tjader - Minority
TTITLE5=Herbie Mann - Yardbird Suite
TTITLE6=Dizzy Gillespie - Caravan
TTITLE7=Dizzy Gillespie feat. Sarah Vaughan - Lover Man
TTITLE8=Red Norvo - Night and Day
TTITLE9=Charlie Parker - Koko
TTITLE10=Cannonball Adderly - Bohemia After Dark
TTITLE11=Curtis Fuller - Five Spot After Dark
TTITLE12=Dizzy Gillespie - Shaw Nuff
EXTD=YEAR: 2006
EXTT0=
EXTT1=
EXTT2=
EXTT3=
EXTT4=
EXTT5=
EXTT6=
EXTT7=
EXTT8=
EXTT9=
EXTT10=
EXTT11=
EXTT12=
PLAYORDER=
